# Blender 5.2.0 LTS
# www.blender.org
mtllib hat.mtl
o Cylinder
v 0.290477 -0.210921 -0.927590
v 0.290477 0.353469 -0.927590
v 0.520113 -0.210921 -0.907050
v 0.520113 0.353469 -0.907050
v 0.740924 -0.210921 -0.846217
v 0.740924 0.353469 -0.846217
v 0.944425 -0.210921 -0.747430
v 0.944425 0.353469 -0.747430
v 1.122795 -0.210921 -0.614486
v 1.122795 0.353469 -0.614486
v 1.269179 -0.210921 -0.452492
v 1.269179 0.353469 -0.452492
v 1.377952 -0.210921 -0.267675
v 1.377952 0.353469 -0.267675
v 1.444935 -0.210921 -0.067136
v 1.444935 0.353469 -0.067136
v 1.467552 -0.210921 0.141417
v 1.467552 0.353469 0.141417
v 1.444935 -0.210921 0.349969
v 1.444935 0.353469 0.349969
v 1.377952 -0.210921 0.550508
v 1.377952 0.353469 0.550508
v 1.269179 -0.210921 0.735325
v 1.269179 0.353469 0.735325
v 1.122795 -0.210921 0.897319
v 1.122795 0.353469 0.897319
v 0.944425 -0.210921 1.030263
v 0.944425 0.353469 1.030263
v 0.740924 -0.210921 1.129050
v 0.740924 0.353469 1.129050
v 0.520113 -0.210921 1.189883
v 0.520113 0.353469 1.189883
v 0.290477 -0.210921 1.210423
v 0.290477 0.353469 1.210423
v 0.060841 -0.210921 1.189883
v 0.060841 0.353469 1.189883
v -0.159971 -0.210921 1.129050
v -0.159971 0.353469 1.129050
v -0.363471 -0.210921 1.030263
v -0.363471 0.353469 1.030263
v -0.541841 -0.210921 0.897319
v -0.541841 0.353469 0.897319
v -0.688226 -0.210921 0.735325
v -0.688226 0.353469 0.735325
v -0.796999 -0.210921 0.550508
v -0.796999 0.353469 0.550508
v -0.863981 -0.210921 0.349969
v -0.863981 0.353469 0.349969
v -0.886599 -0.210921 0.141417
v -0.886599 0.353469 0.141417
v -0.863981 -0.210921 -0.067136
v -0.863981 0.353469 -0.067136
v -0.796999 -0.210921 -0.267675
v -0.796999 0.353469 -0.267675
v -0.688226 -0.210921 -0.452492
v -0.688226 0.353469 -0.452492
v -0.541841 -0.210921 -0.614486
v -0.541841 0.353469 -0.614486
v -0.363471 -0.210921 -0.747430
v -0.363471 0.353469 -0.747430
v -0.159971 -0.210921 -0.846217
v -0.159971 0.353469 -0.846217
v 0.060841 -0.210921 -0.907050
v 0.060841 0.353469 -0.907050
v 0.320729 0.685762 0.003290
v 0.290477 0.685762 0.000584
v 0.349819 0.685762 0.011304
v 0.376629 0.685762 0.024318
v 0.400128 0.685762 0.041833
v 0.419413 0.685762 0.063174
v 0.433743 0.685762 0.087522
v 0.442567 0.685762 0.113941
v 0.445547 0.685762 0.141417
v 0.442567 0.685762 0.168892
v 0.433743 0.685762 0.195311
v 0.419413 0.685762 0.219659
v 0.400128 0.685762 0.241000
v 0.376629 0.685762 0.258515
v 0.349819 0.685762 0.271529
v 0.320729 0.685762 0.279543
v 0.290477 0.685762 0.282249
v 0.260224 0.685762 0.279543
v 0.231134 0.685762 0.271529
v 0.204324 0.685762 0.258515
v 0.180826 0.685762 0.241000
v 0.161541 0.685762 0.219659
v 0.147211 0.685762 0.195311
v 0.138386 0.685762 0.168892
v 0.135407 0.685762 0.141417
v 0.138386 0.685762 0.113941
v 0.147211 0.685762 0.087522
v 0.161541 0.685762 0.063174
v 0.180826 0.685762 0.041833
v 0.204324 0.685762 0.024318
v 0.231134 0.685762 0.011304
v 0.260224 0.685762 0.003290
v 0.290477 0.071274 -0.927590
v 0.520113 0.071274 -0.907050
v 0.740924 0.071274 -0.846217
v 0.944425 0.071274 -0.747430
v 1.122795 0.071274 -0.614486
v 1.269179 0.071274 -0.452492
v 1.377952 0.071274 -0.267675
v 1.444935 0.071274 -0.067136
v 1.467552 0.071274 0.141417
v 1.444935 0.071274 0.349969
v 1.377952 0.071274 0.550508
v 1.269179 0.071274 0.735325
v 1.122795 0.071274 0.897319
v 0.944425 0.071274 1.030263
v 0.740924 0.071274 1.129050
v 0.520113 0.071274 1.189883
v 0.290477 0.071274 1.210423
v 0.060841 0.071274 1.189883
v -0.159971 0.071274 1.129050
v -0.363471 0.071274 1.030263
v -0.541841 0.071274 0.897319
v -0.688226 0.071274 0.735325
v -0.796999 0.071274 0.550508
v -0.863981 0.071274 0.349969
v -0.886599 0.071274 0.141417
v -0.863981 0.071274 -0.067136
v -0.796999 0.071274 -0.267675
v -0.688226 0.071274 -0.452492
v -0.541841 0.071274 -0.614486
v -0.363471 0.071274 -0.747430
v -0.159971 0.071274 -0.846217
v 0.060841 0.071274 -0.907050
v 0.290477 0.071274 -0.927590
v 0.520113 0.071274 -0.907050
v 0.740924 0.071274 -0.846217
v 0.944425 0.071274 -0.747430
v 1.122795 0.071274 -0.614486
v 1.269179 0.071274 -0.452492
v 1.377952 0.071274 -0.267675
v 1.444935 0.071274 -0.067136
v 1.467552 0.071274 0.141417
v 1.444935 0.071274 0.349969
v 1.377952 0.071274 0.550508
v 1.269179 0.071274 0.735325
v 1.122795 0.071274 0.897319
v 0.944425 0.071274 1.030263
v 0.740924 0.071274 1.129050
v 0.520113 0.071274 1.189883
v 0.290477 0.071274 1.210423
v 0.060841 0.071274 1.189883
v -0.159971 0.071274 1.129050
v -0.363471 0.071274 1.030263
v -0.541841 0.071274 0.897319
v -0.688226 0.071274 0.735325
v -0.796999 0.071274 0.550508
v -0.863981 0.071274 0.349969
v -0.886599 0.071274 0.141417
v -0.863981 0.071274 -0.067136
v -0.796999 0.071274 -0.267675
v -0.688226 0.071274 -0.452492
v -0.541841 0.071274 -0.614486
v -0.363471 0.071274 -0.747430
v -0.159971 0.071274 -0.846217
v 0.060841 0.071274 -0.907050
v 0.290477 -0.225525 -0.927590
v 0.520113 -0.225525 -0.907050
v 0.740924 -0.225525 -0.846217
v 0.944425 -0.225525 -0.747430
v 1.122795 -0.225525 -0.614485
v 1.269179 -0.225525 -0.452492
v 1.377952 -0.225525 -0.267675
v 1.444935 -0.225525 -0.067136
v 1.467552 -0.225525 0.141417
v 1.444935 -0.225525 0.349970
v 1.377952 -0.225525 0.550508
v 1.269179 -0.225525 0.735325
v 1.122795 -0.225525 0.897319
v 0.944425 -0.225525 1.030263
v 0.740924 -0.225525 1.129050
v 0.520113 -0.225525 1.189883
v 0.290477 -0.225525 1.210423
v 0.060841 -0.225525 1.189883
v -0.159971 -0.225525 1.129050
v -0.363471 -0.225525 1.030263
v -0.541841 -0.225525 0.897319
v -0.688226 -0.225525 0.735325
v -0.796999 -0.225525 0.550508
v -0.863981 -0.225525 0.349970
v -0.886599 -0.225525 0.141417
v -0.863981 -0.225525 -0.067136
v -0.796999 -0.225525 -0.267675
v -0.688226 -0.225525 -0.452492
v -0.541841 -0.225525 -0.614485
v -0.363471 -0.225525 -0.747430
v -0.159971 -0.225525 -0.846217
v 0.060841 -0.225525 -0.907050
v 1.199059 -0.216975 -0.616239
v 1.428694 -0.216975 -0.595699
v 1.649506 -0.216975 -0.534866
v 1.853006 -0.216975 -0.436079
v 2.031376 -0.216975 -0.303134
v 2.177761 -0.216975 -0.141141
v 2.286534 -0.216975 0.043676
v 2.353517 -0.216975 0.244215
v 2.376134 -0.216975 0.452768
v 2.353517 -0.216975 0.661321
v 2.286534 -0.216975 0.861859
v 2.177761 -0.216975 1.046676
v 2.031376 -0.216975 1.208670
v 1.853006 -0.216975 1.341614
v 1.649506 -0.216975 1.440401
v 1.428694 -0.216975 1.501234
v 1.199059 -0.216975 1.521775
v 0.969422 -0.216975 1.501234
v 0.748611 -0.216975 1.440401
v 0.545110 -0.216975 1.341614
v 0.366741 -0.216975 1.208670
v 0.220356 -0.216975 1.046676
v 0.111583 -0.216975 0.861859
v 0.044600 -0.216975 0.661321
v 0.021983 -0.216975 0.452768
v 0.044600 -0.216975 0.244215
v 0.111583 -0.216975 0.043676
v 0.220356 -0.216975 -0.141141
v 0.366741 -0.216975 -0.303134
v 0.545110 -0.216975 -0.436079
v 0.748611 -0.216975 -0.534866
v 0.969422 -0.216975 -0.595699
vn 0.0891 -0.0000 -0.9960
vn 0.2656 -0.0000 -0.9641
vn 0.4367 -0.0000 -0.8996
vn 0.5976 -0.0000 -0.8018
vn 0.7419 -0.0000 -0.6705
vn 0.8618 -0.0000 -0.5072
vn 0.9485 -0.0000 -0.3168
vn 0.9942 -0.0000 -0.1078
vn 0.9942 -0.0000 0.1078
vn 0.9485 -0.0000 0.3168
vn 0.8618 -0.0000 0.5072
vn 0.7419 -0.0000 0.6705
vn 0.5976 -0.0000 0.8018
vn 0.4367 -0.0000 0.8996
vn 0.2656 -0.0000 0.9641
vn 0.0891 -0.0000 0.9960
vn -0.0891 -0.0000 0.9960
vn -0.2656 -0.0000 0.9641
vn -0.4367 -0.0000 0.8996
vn -0.5976 -0.0000 0.8018
vn -0.7419 -0.0000 0.6705
vn -0.8618 -0.0000 0.5072
vn -0.9485 -0.0000 0.3168
vn -0.9942 -0.0000 0.1078
vn -0.9942 -0.0000 -0.1078
vn -0.9485 -0.0000 -0.3168
vn -0.8618 -0.0000 -0.5072
vn -0.7419 -0.0000 -0.6705
vn -0.5976 -0.0000 -0.8018
vn -0.4367 -0.0000 -0.8996
vn -0.0893 0.9418 -0.3242
vn -0.2656 -0.0000 -0.9641
vn -0.0891 -0.0000 -0.9960
vn -0.0000 -1.0000 -0.0000
vn -0.0000 1.0000 -0.0000
vn 0.3090 0.9505 0.0335
vn -0.0893 0.9418 0.3242
vn -0.2733 0.9484 -0.1608
vn 0.2391 0.9467 -0.2160
vn 0.1452 0.9431 0.2992
vn -0.2969 0.9497 0.0992
vn 0.0301 0.9411 -0.3369
vn -0.0301 0.9411 -0.3369
vn 0.2969 0.9497 0.0992
vn -0.1452 0.9431 0.2992
vn -0.2391 0.9467 -0.2160
vn 0.2733 0.9484 -0.1608
vn 0.0893 0.9418 0.3242
vn -0.3090 0.9505 0.0335
vn 0.0893 0.9418 -0.3242
vn 0.2733 0.9484 0.1608
vn -0.1958 0.9448 0.2627
vn -0.1958 0.9448 -0.2627
vn 0.2969 0.9497 -0.0992
vn 0.0301 0.9411 0.3369
vn -0.3090 0.9505 -0.0335
vn 0.1452 0.9431 -0.2992
vn 0.2391 0.9467 0.2160
vn -0.2391 0.9467 0.2160
vn -0.1452 0.9431 -0.2992
vn 0.3090 0.9505 -0.0335
vn -0.0301 0.9411 0.3369
vn -0.2969 0.9497 -0.0992
vn 0.1958 0.9448 -0.2627
vn 0.1958 0.9448 0.2627
vn -0.2733 0.9484 0.1608
vn -0.0319 0.9973 0.0657
vn -0.0019 0.9998 -0.0218
vn 0.0136 -0.9998 -0.0123
vn -0.0382 -0.9896 0.1386
vn -0.0042 0.9999 -0.0152
vn 0.0174 -0.9996 -0.0234
vn -0.0033 -0.9993 0.0371
vn -0.0055 0.9999 -0.0114
vn 0.0319 -0.9973 -0.0657
vn 0.0019 -0.9998 0.0218
vn -0.0064 0.9999 -0.0086
vn 0.0382 0.9896 -0.1386
vn 0.0042 -0.9999 0.0152
vn -0.0072 1.0000 -0.0065
vn 0.0033 0.9993 -0.0371
vn 0.0055 -0.9999 0.0114
vn -0.0078 1.0000 -0.0046
vn 0.0064 -0.9999 0.0086
vn -0.0084 1.0000 -0.0028
vn 0.0072 -1.0000 0.0065
vn -0.0091 1.0000 -0.0010
vn 0.0078 -1.0000 0.0046
vn -0.0098 1.0000 0.0011
vn 0.0084 -1.0000 0.0028
vn -0.0106 0.9999 0.0035
vn 0.0091 -1.0000 0.0010
vn -0.0118 0.9999 0.0069
vn 0.0098 -1.0000 -0.0011
vn -0.0136 0.9998 0.0123
vn 0.0106 -0.9999 -0.0035
vn -0.0174 0.9996 0.0234
vn 0.0118 -0.9999 -0.0069
vt 1.000000 0.750000
vt 1.000000 1.000000
vt 0.968750 1.000000
vt 0.968750 0.750000
vt 0.937500 1.000000
vt 0.937500 0.750000
vt 0.906250 1.000000
vt 0.906250 0.750000
vt 0.875000 1.000000
vt 0.875000 0.750000
vt 0.843750 1.000000
vt 0.843750 0.750000
vt 0.812500 1.000000
vt 0.812500 0.750000
vt 0.781250 1.000000
vt 0.781250 0.750000
vt 0.750000 1.000000
vt 0.750000 0.750000
vt 0.718750 1.000000
vt 0.718750 0.750000
vt 0.687500 1.000000
vt 0.687500 0.750000
vt 0.656250 1.000000
vt 0.656250 0.750000
vt 0.625000 1.000000
vt 0.625000 0.750000
vt 0.593750 1.000000
vt 0.593750 0.750000
vt 0.562500 1.000000
vt 0.562500 0.750000
vt 0.531250 1.000000
vt 0.531250 0.750000
vt 0.500000 1.000000
vt 0.500000 0.750000
vt 0.468750 1.000000
vt 0.468750 0.750000
vt 0.437500 1.000000
vt 0.437500 0.750000
vt 0.406250 1.000000
vt 0.406250 0.750000
vt 0.375000 1.000000
vt 0.375000 0.750000
vt 0.343750 1.000000
vt 0.343750 0.750000
vt 0.312500 1.000000
vt 0.312500 0.750000
vt 0.281250 1.000000
vt 0.281250 0.750000
vt 0.250000 1.000000
vt 0.250000 0.750000
vt 0.218750 1.000000
vt 0.218750 0.750000
vt 0.187500 1.000000
vt 0.187500 0.750000
vt 0.156250 1.000000
vt 0.156250 0.750000
vt 0.125000 1.000000
vt 0.125000 0.750000
vt 0.093750 1.000000
vt 0.093750 0.750000
vt 0.062500 1.000000
vt 0.062500 0.750000
vt 0.031250 1.000000
vt 0.031250 0.750000
vt 0.000000 1.000000
vt 0.000000 0.750000
vt 0.750000 0.490000
vt 0.796822 0.485388
vt 0.841844 0.471731
vt 0.883337 0.449553
vt 0.919706 0.419706
vt 0.949553 0.383337
vt 0.971731 0.341844
vt 0.985388 0.296822
vt 0.990000 0.250000
vt 0.985388 0.203178
vt 0.971731 0.158156
vt 0.949553 0.116663
vt 0.919706 0.080294
vt 0.883337 0.050447
vt 0.841844 0.028269
vt 0.796822 0.014612
vt 0.750000 0.010000
vt 0.703178 0.014612
vt 0.658156 0.028269
vt 0.616663 0.050447
vt 0.580294 0.080294
vt 0.550447 0.116663
vt 0.528269 0.158156
vt 0.514612 0.203178
vt 0.510000 0.250000
vt 0.514612 0.296822
vt 0.528269 0.341844
vt 0.550447 0.383337
vt 0.580294 0.419706
vt 0.616663 0.449553
vt 0.658156 0.471731
vt 0.703178 0.485388
vt 0.296822 0.485388
vt 0.250000 0.490000
vt 0.203178 0.485388
vt 0.158156 0.471731
vt 0.116663 0.449553
vt 0.080294 0.419706
vt 0.050447 0.383337
vt 0.028269 0.341844
vt 0.014612 0.296822
vt 0.010000 0.250000
vt 0.014612 0.203178
vt 0.028269 0.158156
vt 0.050447 0.116663
vt 0.080294 0.080294
vt 0.116663 0.050447
vt 0.158156 0.028269
vt 0.203178 0.014612
vt 0.250000 0.010000
vt 0.296822 0.014612
vt 0.341844 0.028269
vt 0.383337 0.050447
vt 0.419706 0.080294
vt 0.449553 0.116663
vt 0.471731 0.158156
vt 0.485388 0.203178
vt 0.490000 0.250000
vt 0.485388 0.296822
vt 0.471731 0.341844
vt 0.449553 0.383337
vt 0.419706 0.419706
vt 0.383337 0.449553
vt 0.341844 0.471731
vt 0.031250 0.500000
vt 0.000000 0.500000
vt 0.062500 0.500000
vt 0.093750 0.500000
vt 0.125000 0.500000
vt 0.156250 0.500000
vt 0.187500 0.500000
vt 0.187500 0.750000
vt 0.218750 0.500000
vt 0.250000 0.500000
vt 0.281250 0.500000
vt 0.312500 0.500000
vt 0.312500 0.750000
vt 0.343750 0.500000
vt 0.375000 0.500000
vt 0.406250 0.500000
vt 0.406250 0.750000
vt 0.437500 0.500000
vt 0.437500 0.750000
vt 0.468750 0.500000
vt 0.500000 0.500000
vt 0.531250 0.500000
vt 0.562500 0.500000
vt 0.593750 0.500000
vt 0.625000 0.500000
vt 0.656250 0.500000
vt 0.687500 0.500000
vt 0.687500 0.750000
vt 0.718750 0.500000
vt 0.750000 0.500000
vt 0.781250 0.500000
vt 0.812500 0.500000
vt 0.812500 0.750000
vt 0.843750 0.500000
vt 0.875000 0.500000
vt 0.906250 0.500000
vt 0.906250 0.750000
vt 0.937500 0.500000
vt 0.937500 0.750000
vt 0.968750 0.500000
vt 1.000000 0.500000
s 0
usemtl Material.001
f 129/1/1 2/2/1 4/3/1 130/4/1
f 130/4/2 4/3/2 6/5/2 131/6/2
f 131/6/3 6/5/3 8/7/3 132/8/3
f 132/8/4 8/7/4 10/9/4 133/10/4
f 133/10/5 10/9/5 12/11/5 134/12/5
f 134/12/6 12/11/6 14/13/6 135/14/6
f 135/14/7 14/13/7 16/15/7 136/16/7
f 136/16/8 16/15/8 18/17/8 137/18/8
f 137/18/9 18/17/9 20/19/9 138/20/9
f 138/20/10 20/19/10 22/21/10 139/22/10
f 139/22/11 22/21/11 24/23/11 140/24/11
f 140/24/12 24/23/12 26/25/12 141/26/12
f 141/26/13 26/25/13 28/27/13 142/28/13
f 142/28/14 28/27/14 30/29/14 143/30/14
f 143/30/15 30/29/15 32/31/15 144/32/15
f 144/32/16 32/31/16 34/33/16 145/34/16
f 145/34/17 34/33/17 36/35/17 146/36/17
f 146/36/18 36/35/18 38/37/18 147/38/18
f 147/38/19 38/37/19 40/39/19 148/40/19
f 148/40/20 40/39/20 42/41/20 149/42/20
f 149/42/21 42/41/21 44/43/21 150/44/21
f 150/44/22 44/43/22 46/45/22 151/46/22
f 151/46/23 46/45/23 48/47/23 152/48/23
f 152/48/24 48/47/24 50/49/24 153/50/24
f 153/50/25 50/49/25 52/51/25 154/52/25
f 154/52/26 52/51/26 54/53/26 155/54/26
f 155/54/27 54/53/27 56/55/27 156/56/27
f 156/56/28 56/55/28 58/57/28 157/58/28
f 157/58/29 58/57/29 60/59/29 158/60/29
f 158/60/30 60/59/30 62/61/30 159/62/30
f 64/63/31 62/61/31 95/61/31 96/63/31
f 159/62/32 62/61/32 64/63/32 160/64/32
f 160/64/33 64/63/33 2/65/33 129/66/33
f 1/67/34 3/68/34 5/69/34 7/70/34 9/71/34 11/72/34 13/73/34 15/74/34 17/75/34 19/76/34 21/77/34 23/78/34 25/79/34 27/80/34 29/81/34 31/82/34 33/83/34 35/84/34 37/85/34 39/86/34 41/87/34 43/88/34 45/89/34 47/90/34 49/91/34 51/92/34 53/93/34 55/94/34 57/95/34 59/96/34 61/97/34 63/98/34
f 65/99/35 66/100/35 96/101/35 95/102/35 94/103/35 93/104/35 92/105/35 91/106/35 90/107/35 89/108/35 88/109/35 87/110/35 86/111/35 85/112/35 84/113/35 83/114/35 82/115/35 81/116/35 80/117/35 79/118/35 78/119/35 77/120/35 76/121/35 75/122/35 74/123/35 73/124/35 72/125/35 71/126/35 70/127/35 69/128/35 68/129/35 67/130/35
f 20/19/36 18/17/36 73/17/36 74/19/36
f 38/37/37 36/35/37 82/35/37 83/37/37
f 56/55/38 54/53/38 91/53/38 92/55/38
f 12/11/39 10/9/39 69/9/39 70/11/39
f 30/29/40 28/27/40 78/27/40 79/29/40
f 48/47/41 46/45/41 87/45/41 88/47/41
f 4/3/42 2/2/42 66/2/42 65/3/42
f 2/65/43 64/63/43 96/63/43 66/65/43
f 22/21/44 20/19/44 74/19/44 75/21/44
f 40/39/45 38/37/45 83/37/45 84/39/45
f 58/57/46 56/55/46 92/55/46 93/57/46
f 14/13/47 12/11/47 70/11/47 71/13/47
f 32/31/48 30/29/48 79/29/48 80/31/48
f 50/49/49 48/47/49 88/47/49 89/49/49
f 6/5/50 4/3/50 65/3/50 67/5/50
f 24/23/51 22/21/51 75/21/51 76/23/51
f 42/41/52 40/39/52 84/39/52 85/41/52
f 60/59/53 58/57/53 93/57/53 94/59/53
f 16/15/54 14/13/54 71/13/54 72/15/54
f 34/33/55 32/31/55 80/31/55 81/33/55
f 52/51/56 50/49/56 89/49/56 90/51/56
f 8/7/57 6/5/57 67/5/57 68/7/57
f 26/25/58 24/23/58 76/23/58 77/25/58
f 44/43/59 42/41/59 85/41/59 86/43/59
f 62/61/60 60/59/60 94/59/60 95/61/60
f 18/17/61 16/15/61 72/15/61 73/17/61
f 36/35/62 34/33/62 81/33/62 82/35/62
f 54/53/63 52/51/63 90/51/63 91/53/63
f 10/9/64 8/7/64 68/7/64 69/9/64
f 28/27/65 26/25/65 77/25/65 78/27/65
f 46/45/66 44/43/66 86/43/66 87/45/66
f 63/131/33 128/64/33 97/66/33 1/132/33
f 61/133/32 127/62/32 128/64/32 63/131/32
f 59/134/30 126/60/30 127/62/30 61/133/30
f 57/135/29 125/58/29 126/60/29 59/134/29
f 55/136/28 124/56/28 125/58/28 57/135/28
f 53/137/27 123/138/27 124/56/27 55/136/27
f 51/139/26 122/52/26 123/138/26 53/137/26
f 49/140/25 121/50/25 122/52/25 51/139/25
f 47/141/24 120/48/24 121/50/24 49/140/24
f 45/142/23 119/143/23 120/48/23 47/141/23
f 43/144/22 118/44/22 119/143/22 45/142/22
f 41/145/21 117/42/21 118/44/21 43/144/21
f 39/146/20 116/147/20 117/42/20 41/145/20
f 37/148/19 115/149/19 116/147/19 39/146/19
f 35/150/18 114/36/18 115/149/18 37/148/18
f 33/151/17 113/34/17 114/36/17 35/150/17
f 31/152/16 112/32/16 113/34/16 33/151/16
f 29/153/15 111/30/15 112/32/15 31/152/15
f 27/154/14 110/28/14 111/30/14 29/153/14
f 25/155/13 109/26/13 110/28/13 27/154/13
f 23/156/12 108/24/12 109/26/12 25/155/12
f 21/157/11 107/158/11 108/24/11 23/156/11
f 19/159/10 106/20/10 107/158/10 21/157/10
f 17/160/9 105/18/9 106/20/9 19/159/9
f 15/161/8 104/16/8 105/18/8 17/160/8
f 13/162/7 103/163/7 104/16/7 15/161/7
f 11/164/6 102/12/6 103/163/6 13/162/6
f 9/165/5 101/10/5 102/12/5 11/164/5
f 7/166/4 100/167/4 101/10/4 9/165/4
f 5/168/3 99/169/3 100/167/3 7/166/3
f 3/170/2 98/4/2 99/169/2 5/168/2
f 1/171/1 97/1/1 98/4/1 3/170/1
f 128/64/35 160/64/35 129/66/35 97/66/35
f 127/62/35 159/62/35 160/64/35 128/64/35
f 126/60/35 158/60/35 159/62/35 127/62/35
f 125/58/35 157/58/35 158/60/35 126/60/35
f 124/56/35 156/56/35 157/58/35 125/58/35
f 123/138/35 155/54/35 156/56/35 124/56/35
f 122/52/35 154/52/35 155/54/35 123/138/35
f 121/50/35 153/50/35 154/52/35 122/52/35
f 120/48/35 152/48/35 153/50/35 121/50/35
f 119/143/35 151/46/35 152/48/35 120/48/35
f 118/44/35 150/44/35 151/46/35 119/143/35
f 117/42/35 149/42/35 150/44/35 118/44/35
f 116/147/35 148/40/35 149/42/35 117/42/35
f 115/149/35 147/38/35 148/40/35 116/147/35
f 114/36/35 146/36/35 147/38/35 115/149/35
f 113/34/35 145/34/35 146/36/35 114/36/35
f 112/32/35 144/32/35 145/34/35 113/34/35
f 111/30/35 143/30/35 144/32/35 112/32/35
f 110/28/35 142/28/35 143/30/35 111/30/35
f 109/26/35 141/26/35 142/28/35 110/28/35
f 108/24/35 140/24/35 141/26/35 109/26/35
f 107/158/35 139/22/35 140/24/35 108/24/35
f 106/20/35 138/20/35 139/22/35 107/158/35
f 105/18/35 137/18/35 138/20/35 106/20/35
f 104/16/35 136/16/35 137/18/35 105/18/35
f 103/163/35 135/14/35 136/16/35 104/16/35
f 102/12/35 134/12/35 135/14/35 103/163/35
f 101/10/35 133/10/35 134/12/35 102/12/35
f 100/167/35 132/8/35 133/10/35 101/10/35
f 99/169/35 131/6/35 132/8/35 100/167/35
f 98/4/35 130/4/35 131/6/35 99/169/35
f 97/1/35 129/1/35 130/4/35 98/4/35
f 156/56/11 155/54/11 187/54/11 188/56/11
f 142/28/29 141/26/29 173/26/29 174/28/29
f 155/54/10 154/52/10 186/52/10 187/54/10
f 141/26/28 140/24/28 172/24/28 173/26/28
f 154/52/9 153/50/9 185/50/9 186/52/9
f 140/24/27 139/22/27 171/22/27 172/24/27
f 153/50/8 152/48/8 184/48/8 185/50/8
f 139/22/26 138/20/26 170/20/26 171/22/26
f 152/48/7 151/46/7 183/46/7 184/48/7
f 138/20/25 137/18/25 169/18/25 170/20/25
f 151/46/6 150/44/6 182/44/6 183/46/6
f 137/18/24 136/16/24 168/16/24 169/18/24
f 150/44/5 149/42/5 181/42/5 182/44/5
f 136/16/23 135/14/23 167/14/23 168/16/23
f 149/42/4 148/40/4 180/40/4 181/42/4
f 135/14/22 134/12/22 166/12/22 167/14/22
f 148/40/3 147/38/3 179/38/3 180/40/3
f 129/66/16 160/64/16 192/64/16 161/66/16
f 134/12/21 133/10/21 165/10/21 166/12/21
f 147/38/2 146/36/2 178/36/2 179/38/2
f 160/64/15 159/62/15 191/62/15 192/64/15
f 133/10/20 132/8/20 164/8/20 165/10/20
f 146/36/1 145/34/1 177/34/1 178/36/1
f 159/62/14 158/60/14 190/60/14 191/62/14
f 132/8/19 131/6/19 163/6/19 164/8/19
f 145/34/33 144/32/33 176/32/33 177/34/33
f 158/60/13 157/58/13 189/58/13 190/60/13
f 131/6/18 130/4/18 162/4/18 163/6/18
f 144/32/32 143/30/32 175/30/32 176/32/32
f 157/58/12 156/56/12 188/56/12 189/58/12
f 130/4/17 129/1/17 161/1/17 162/4/17
f 143/30/30 142/28/30 174/28/30 175/30/30
f 180/40/67 179/38/67 211/38/67 212/40/67
f 161/66/68 192/64/68 224/64/68 193/66/68
f 166/12/69 165/10/69 197/10/69 198/12/69
f 179/38/70 178/36/70 210/36/70 211/38/70
f 192/64/71 191/62/71 223/62/71 224/64/71
f 165/10/72 164/8/72 196/8/72 197/10/72
f 178/36/73 177/34/73 209/34/73 210/36/73
f 191/62/74 190/60/74 222/60/74 223/62/74
f 164/8/75 163/6/75 195/6/75 196/8/75
f 177/34/76 176/32/76 208/32/76 209/34/76
f 190/60/77 189/58/77 221/58/77 222/60/77
f 163/6/78 162/4/78 194/4/78 195/6/78
f 176/32/79 175/30/79 207/30/79 208/32/79
f 189/58/80 188/56/80 220/56/80 221/58/80
f 162/4/81 161/1/81 193/1/81 194/4/81
f 175/30/82 174/28/82 206/28/82 207/30/82
f 188/56/83 187/54/83 219/54/83 220/56/83
f 174/28/84 173/26/84 205/26/84 206/28/84
f 187/54/85 186/52/85 218/52/85 219/54/85
f 173/26/86 172/24/86 204/24/86 205/26/86
f 186/52/87 185/50/87 217/50/87 218/52/87
f 172/24/88 171/22/88 203/22/88 204/24/88
f 185/50/89 184/48/89 216/48/89 217/50/89
f 171/22/90 170/20/90 202/20/90 203/22/90
f 184/48/91 183/46/91 215/46/91 216/48/91
f 170/20/92 169/18/92 201/18/92 202/20/92
f 183/46/93 182/44/93 214/44/93 215/46/93
f 169/18/94 168/16/94 200/16/94 201/18/94
f 182/44/95 181/42/95 213/42/95 214/44/95
f 168/16/96 167/14/96 199/14/96 200/16/96
f 181/42/97 180/40/97 212/40/97 213/42/97
f 167/14/98 166/12/98 198/12/98 199/14/98
