# Blender 5.2.0 LTS
# www.blender.org
mtllib vase.mtl
o Cube
v -0.403121 1.000000 -1.355542
v 1.000000 -1.000000 -1.000000
v 1.355542 1.000000 -0.403121
v 1.000000 -1.000000 1.000000
v -1.355542 1.000000 0.403121
v -1.000000 -1.000000 -1.000000
v 0.403121 1.000000 1.355542
v -1.000000 -1.000000 1.000000
v 0.908749 2.093066 -1.552750
v 1.300930 2.746214 0.554600
v -0.946781 2.093066 -0.806420
v -0.554600 2.746214 1.300930
v 0.908749 2.950030 -1.552750
v 1.300930 3.603177 0.554600
v -0.946781 2.950030 -0.806420
v -0.554600 3.603177 1.300930
v 0.180296 0.717853 -0.422921
v 0.422921 0.717853 0.180296
v -0.422921 0.717853 -0.180296
v -0.180296 0.717853 0.422921
v 0.554600 3.829736 -1.300930
v 1.300930 3.829736 0.554600
v -1.300930 3.829736 -0.554600
v -0.554600 3.829736 1.300930
v 0.397180 3.829736 -0.931668
v 0.931668 3.829736 0.397180
v -0.931668 3.829736 -0.397180
v -0.397180 3.829736 0.931668
v 0.263624 3.829736 -0.618386
v 0.618386 3.829736 0.263624
v -0.618386 3.829736 -0.263624
v -0.263624 3.829736 0.618386
vn -0.9699 0.1745 -0.1700
vn 0.5118 -0.0000 0.8591
vn -0.8591 -0.0000 0.5118
vn -0.0000 -1.0000 -0.0000
vn 0.8591 -0.0000 -0.5118
vn -0.5118 -0.0000 -0.8591
vn -0.9831 -0.0000 0.1830
vn 0.9870 -0.0524 0.1519
vn -0.0569 -0.0000 0.9984
vn 0.0553 -0.2411 -0.9689
vn -0.3707 0.1146 -0.9217
vn -0.3732 -0.0000 -0.9278
vn 0.3732 -0.0000 0.9278
vn 0.9831 -0.0000 -0.1830
vn -0.0000 1.0000 -0.0000
vn 0.8821 0.3533 -0.3116
vn -0.8821 -0.3533 0.3116
vn -0.9267 0.0482 0.3727
vn 0.3727 0.0482 0.9267
vn -0.3727 0.0482 -0.9267
vn 0.9267 0.0482 -0.3727
vt 0.625000 0.500000
vt 0.625000 0.250000
vt 0.375000 0.750000
vt 0.625000 0.750000
vt 0.625000 1.000000
vt 0.375000 1.000000
vt 0.375000 0.000000
vt 0.625000 0.000000
vt 0.375000 0.250000
vt 0.125000 0.500000
vt 0.375000 0.500000
vt 0.125000 0.750000
vt 0.709364 0.584364
vt 0.790636 0.584364
vt 0.790636 0.665636
vt 0.709364 0.665636
vt 0.660481 0.714519
vt 0.839519 0.714519
vt 0.875000 0.750000
vt 0.660481 0.535481
vt 0.839519 0.535481
vt 0.875000 0.500000
vt 0.690582 0.684418
vt 0.809418 0.684418
vt 0.690582 0.565582
vt 0.809418 0.565582
s 0
usemtl Material
f 1/1/1 5/2/1 12/2/1 11/1/1
f 4/3/2 3/4/2 7/5/2 8/6/2
f 8/7/3 7/8/3 5/2/3 6/9/3
f 6/10/4 2/11/4 4/3/4 8/12/4
f 2/11/5 1/1/5 3/4/5 4/3/5
f 6/9/6 5/2/6 1/1/6 2/11/6
f 11/1/7 12/2/7 16/2/7 15/1/7
f 7/5/8 3/4/8 9/4/8 10/5/8
f 5/2/9 7/8/9 10/8/9 12/2/9
f 3/4/10 1/1/10 11/1/10 9/4/10
f 13/4/11 15/1/11 23/1/11 21/4/11
f 9/4/12 11/1/12 15/1/12 13/4/12
f 12/2/13 10/8/13 14/8/13 16/2/13
f 10/5/14 9/4/14 13/4/14 14/5/14
f 19/13/15 20/14/15 18/15/15 17/16/15
f 16/2/13 14/8/13 22/8/13 24/2/13
f 14/5/16 13/4/16 21/4/16 22/5/16
f 15/1/17 16/2/17 24/2/17 23/1/17
f 25/17/15 26/18/15 22/19/15 21/4/15
f 27/20/15 25/17/15 21/4/15 23/1/15
f 26/18/15 28/21/15 24/22/15 22/19/15
f 28/21/15 27/20/15 23/1/15 24/22/15
f 29/23/15 30/24/15 26/18/15 25/17/15
f 31/25/15 29/23/15 25/17/15 27/20/15
f 30/24/15 32/26/15 28/21/15 26/18/15
f 32/26/15 31/25/15 27/20/15 28/21/15
f 17/16/18 18/15/18 30/24/18 29/23/18
f 19/13/19 17/16/19 29/23/19 31/25/19
f 18/15/20 20/14/20 32/26/20 30/24/20
f 20/14/21 19/13/21 31/25/21 32/26/21
